<?xml version="1.0" encoding="UTF-8" standalone="no"?>
<svg
   xmlns:dc="http://purl.org/dc/elements/1.1/"
   xmlns:cc="http://creativecommons.org/ns#"
   xmlns:rdf="http://www.w3.org/1999/02/22-rdf-syntax-ns#"
   xmlns:svg="http://www.w3.org/2000/svg"
   xmlns="http://www.w3.org/2000/svg"
   version="1.1"
   id="svg2"
   width="347.80328"
   height="85.508194"
   viewBox="0 0 347.80328 85.508194">
  <metadata
     id="metadata8">
    <rdf:RDF>
      <cc:Work
         rdf:about="">
        <dc:format>image/svg+xml</dc:format>
        <dc:type
           rdf:resource="http://purl.org/dc/dcmitype/StillImage" />
        <dc:title></dc:title>
      </cc:Work>
    </rdf:RDF>
  </metadata>
  <defs
     id="defs6" />
  <g
     id="layer1"
     style="display:inline">
    <path
       style="fill:#050505;stroke:none;stroke-width:0.52459"
       d="m 128,0 v 50.885244 h 7.34426 c 0,-7.048603 -1.35134,-15.728366 0.64105,-22.536602 1.00617,-3.44 4.26702,-7.017653 8.19987,-5.896813 3.27921,0.934557 4.74597,4.351528 5.1221,7.452695 0.8299,6.848209 0.20092,14.087606 0.20092,20.98072 h 7.34426 l -5.2e-4,-16.262294 c -0.004,-3.829194 0.20826,-7.895397 -1.21128,-11.528393 -2.29036,-5.861456 -8.55974,-9.114439 -14.50754,-6.592315 -2.1865,0.927161 -3.98741,2.447161 -5.78886,3.956774 V 0 H 128 M 93.37705,42.491802 c -1.036591,6.289364 2.426229,8.252852 8.39397,8.707987 6.33967,0.483567 13.5979,-1.376525 16.99934,-7.21579 0.92118,-1.580853 1.45364,-3.349299 1.64144,-5.164958 0.68145,-6.598085 -3.19475,-11.498019 -8.68878,-14.639894 -3.30912,-1.892721 -7.37207,-3.239344 -9.58374,-6.555384 -2.486558,-3.727527 -0.0645,-7.7652453 3.8657,-9.0314485 3.73561,-1.2033574 7.81273,0.070715 11.50322,0.8503082 L 119.08197,3.672131 C 113.89639,2.0746176 108.70767,1.0097731 103.34531,2.5063868 96.093377,4.5305546 90.977574,11.970675 93.992918,19.38754 c 3.251935,7.997797 13.073832,8.105443 17.419542,14.829377 2.82702,4.37419 -0.34623,9.086636 -4.93744,10.286583 -4.41705,1.154518 -8.960528,-0.607633 -13.09797,-2.011698 M 169.67239,2.6506806 c -4.30845,1.1683409 -2.10465,7.7705654 2.07738,6.3651355 3.93076,-1.3208655 1.86649,-7.4346175 -2.07738,-6.3651355 M 279.08197,42.491802 c -0.69351,4.203646 -0.11541,6.583764 4.19672,7.868852 v 0.52459 c -1.60892,0.525115 -3.19685,1.052171 -4.59226,2.043279 -0.91017,0.646295 -1.72223,1.43318 -2.34702,2.361705 -0.50098,0.744393 -0.87974,1.571672 -1.0859,2.446164 -1.82925,7.746098 7.67895,8.770622 10.57154,13.887475 1.54387,2.729442 -0.38085,5.445245 -3.15751,6.160786 -2.64498,0.681967 -5.31672,-0.316852 -7.78229,-1.194492 0.30321,8.423869 12.87711,6.223213 15.79855,0.411804 0.47528,-0.945312 0.76486,-1.984 0.83568,-3.040525 0.49364,-7.325901 -7.36682,-7.954885 -10.4703,-12.896524 -3.69731,-5.888 5.9221,-5.913705 9.04918,-5.45836 0.32892,-1.740066 1.01561,-3.22964 -1.04918,-3.672131 v -0.524591 c 4.20721,-0.292983 8.42859,-0.921022 11.90453,-3.516275 6.01809,-4.493272 6.99908,-13.529022 2.13298,-19.242701 -4.19148,-4.922124 -12.32052,-5.825783 -15.53364,-11.495868 -2.08105,-3.672079 0.49836,-7.3840788 4.15685,-8.5626755 3.73561,-1.2034098 7.81272,0.070715 11.50322,0.8503082 l 1.57377,-5.7704917 c -5.18558,-1.5975186 -10.3743,-2.6623579 -15.73666,-1.1657442 -7.25246,2.0241835 -12.36774,9.4642362 -9.35239,16.8811532 3.25193,7.997797 13.07383,8.105443 17.41954,14.829377 2.82701,4.37419 -0.34623,9.086636 -4.93744,10.286583 -4.41705,1.154518 -8.96053,-0.60758 -13.09797,-2.011698 M 14.688525,2.0983606 l 9.05621,18.8852454 4.408865,9.442623 0.698859,20.459015 h 7.344262 L 36.869194,30.426229 42.127633,19.409835 51.409836,2.0983606 43.617574,3.3060668 39.311318,9.9710948 33.04918,24.655737 26.368577,9.9710948 22.011016,3.3060668 14.688525,2.0983606 m 171.540985,0 -3.67213,48.7868834 c 2.08892,-0.05015 5.00196,0.161836 6.34806,-1.803855 1.81404,-2.648236 1.19607,-7.70303 1.38072,-10.786308 0.55292,-9.246374 1.18191,-18.539698 1.18925,-27.803278 H 192 c 1.72433,9.832813 5.01351,19.333035 7.94807,28.852406 1.77573,5.760209 2.53954,10.630504 9.36341,11.016445 l 12.06557,-39.868851 h 0.52459 l 1.57377,40.393441 h 7.34426 l -3.14754,-48.7868834 -8.20301,1.2077062 -4.56184,9.8087392 -7.69416,26.754045 h -1.04918 l -7.34217,-26.754045 -4.40131,-9.8087392 -8.19095,-1.2077062 m 52.98361,0 1.04918,34.0983594 h 5.77049 l 1.04918,-34.0983594 h -7.86885 m 18.36065,13.6393434 h -4.72131 v 5.245902 h 4.72131 c 0,6.984708 -0.85246,14.61398 0.38505,21.505363 0.66308,3.6928 2.76826,6.964774 6.46715,8.16341 2.69429,0.87297 5.60105,0.498255 8.36092,0.232865 v -5.770491 l -6.00709,-2.136184 -1.84288,-7.307016 -0.0189,-14.687947 h 8.39345 v -5.245902 h -8.39345 V 7.3442621 c -5.11423,1.2655737 -7.14387,3.0190159 -7.34426,8.3934419 M 68.196722,15.648524 C 50.646453,18.16577 49.078348,46.985021 66.624,50.77933 c 1.891148,0.40897 3.854689,0.469508 5.769443,0.195042 C 89.933115,48.460116 91.574033,19.515383 73.966689,15.83255 72.072918,15.436432 70.112,15.373849 68.196722,15.648524 m 98.622948,0.08918 v 35.14754 h 7.34427 v -35.14754 h -7.34427 m 147.40984,0 5.2e-4,16.262295 c 0.007,7.89718 0.33627,15.872104 8.91751,18.885245 v 0.52459 h -18.36065 v 3.672131 h 7.86885 v 26.754098 h 4.72131 V 55.081965 h 8.39344 v -3.672131 l 11.0164,-5.245901 v 4.721311 h 6.29508 v -35.14754 h -7.34426 l -5.3e-4,14.163934 c -0.003,2.91499 0.22715,6.080053 -0.70872,8.885403 -1.0922,3.272708 -4.42754,6.440026 -8.1217,5.384079 -3.26033,-0.931882 -4.72551,-4.3744 -5.11791,-7.452695 -0.87029,-6.83499 -0.21508,-14.096419 -0.21508,-20.980721 h -7.34426 M 1.5737705,19.409835 c 2.1054584,3.147122 4.1850754,5.21044 7.8688525,6.295082 C 7.3915279,22.314124 5.6114361,20.097049 1.5737705,19.409835 M 70.807607,21.362937 C 82.15764,22.193468 81.458361,46.024759 69.781508,45.166267 58.425705,44.331435 59.089312,20.505442 70.807607,21.362937 M 241.99344,42.520025 c -4.81206,1.229115 -3.104,9.085482 1.78361,7.847868 4.80787,-1.217258 3.12551,-9.101743 -1.78361,-7.847868 m 56.48682,10.380695 c -1.66452,0.888655 -0.20616,3.401967 1.36761,2.357508 1.40538,-0.932197 0.14793,-3.166689 -1.36761,-2.357508 m 46.70007,28.410753 -0.52459,-3.147541 c -6.03016,0.649967 -9.96144,-0.49259 -12.59016,-6.295082 h 14.16393 c -0.0824,-2.113049 -0.16367,-4.248131 -0.89285,-6.258885 -2.05272,-5.661377 -8.8063,-7.617573 -13.43004,-3.593967 -4.93272,4.292721 -5.0775,13.339278 -0.0635,17.608917 1.54649,1.317246 3.46492,2.083673 5.46833,2.347017 2.63711,0.346229 5.28367,-0.18623 7.86885,-0.660459 M 296.918,59.803277 v 22.032786 h 4.72132 V 59.803277 H 296.918 m 45.11476,8.918032 h -9.44262 c 0.98308,-3.602885 4.96367,-7.999475 8.16944,-3.386754 0.70872,1.019279 0.96997,2.206951 1.27318,3.386754 z"
       id="path14" />
  </g>
</svg>
